<?xml version="1.0" encoding="iso-8859-1"?>
<!-- Uploaded to: SVG Repo, www.svgrepo.com, Generator: SVG Repo Mixer Tools -->
<!DOCTYPE svg PUBLIC "-//W3C//DTD SVG 1.1//EN" "http://www.w3.org/Graphics/SVG/1.1/DTD/svg11.dtd">
<svg fill="#000000" version="1.1" id="Capa_1" xmlns="http://www.w3.org/2000/svg" xmlns:xlink="http://www.w3.org/1999/xlink" 
	 width="800px" height="800px" viewBox="0 0 38.981 38.981"
	 xml:space="preserve">
<g>
	<g>
		<path d="M20.12,6.724c0-2.822-2.296-5.118-5.118-5.118c-2.821,0-5.117,2.296-5.117,5.118c0,2.822,2.296,5.118,5.117,5.118
			C17.824,11.842,20.12,9.546,20.12,6.724z M11.885,6.724c0-1.72,1.398-3.118,3.117-3.118c1.72,0,3.118,1.398,3.118,3.118
			c0,1.72-1.398,3.118-3.118,3.118C13.283,9.842,11.885,8.444,11.885,6.724z"/>
		<path d="M2.938,12.707l5.628-0.876c0.546-0.085,0.92-0.597,0.835-1.142c-0.085-0.546-0.592-0.915-1.142-0.835l-7.412,1.153
			c-0.359,0.056-0.66,0.303-0.785,0.644c-0.126,0.342-0.056,0.725,0.183,0.999l3.189,3.686L1.34,19.251
			c-0.124,0.173-0.189,0.38-0.188,0.593l0.164,16.541c0.006,0.549,0.452,0.99,1,0.99c0.003,0,0.007,0,0.01,0
			c0.553-0.006,0.996-0.459,0.99-1.011L3.156,20.151l2.362-3.29c0.27-0.376,0.246-0.888-0.057-1.237L2.938,12.707z"/>
		<path d="M38.959,23.875c-0.008-0.056-0.021-0.105-0.039-0.158c-0.012-0.036-0.017-0.073-0.031-0.107
			c-0.016-0.035-0.041-0.064-0.061-0.098c-0.017-0.025-0.02-0.055-0.036-0.078c-0.017-0.021-0.04-0.032-0.059-0.053
			c-0.023-0.029-0.045-0.062-0.071-0.088c-0.01-0.008-0.013-0.019-0.021-0.025L27.173,13.2c-0.036-0.031-0.08-0.043-0.119-0.068
			c-0.056-0.037-0.109-0.072-0.17-0.098c-0.06-0.023-0.118-0.035-0.18-0.047c-0.065-0.014-0.128-0.025-0.194-0.025
			c-0.061,0-0.119,0.012-0.179,0.023c-0.065,0.012-0.128,0.024-0.19,0.049c-0.062,0.025-0.114,0.062-0.171,0.099
			c-0.037,0.024-0.08,0.036-0.115,0.066l-8.672,7.585l-3.321-2.53v-3.787c0-0.421-0.263-0.796-0.658-0.939
			c-0.396-0.145-0.839-0.024-1.108,0.298l-5.931,7.083c-0.245,0.293-0.302,0.697-0.147,1.047l2.221,5.021v9.399c0,0.553,0.447,1,1,1
			c0.553,0,1-0.447,1-1v-9.61c0-0.14-0.029-0.277-0.086-0.404l-2.055-4.646l3.765-4.496v1.53c0,0.313,0.146,0.606,0.394,0.795
			l3.392,2.583l-1.303,1.141c-0.025,0.021-0.037,0.054-0.06,0.078c-0.023,0.023-0.054,0.037-0.074,0.064
			c-0.021,0.027-0.026,0.062-0.045,0.09c-0.036,0.06-0.065,0.117-0.089,0.183c-0.021,0.06-0.037,0.116-0.048,0.179
			c-0.01,0.064-0.014,0.126-0.012,0.19c0.002,0.063,0.009,0.124,0.023,0.187c0.004,0.018,0.002,0.036,0.007,0.055
			c-0.018,0.074-0.045,0.144-0.045,0.223v11.859c0,0.131,0.026,0.261,0.077,0.383c0.102,0.244,0.296,0.438,0.541,0.541
			c0.122,0.051,0.252,0.076,0.382,0.076h22.979c0.13,0,0.261-0.025,0.383-0.076c0.244-0.103,0.438-0.297,0.541-0.541
			c0.051-0.122,0.076-0.252,0.076-0.383V24.02c0-0.011-0.006-0.02-0.006-0.03C38.975,23.952,38.965,23.915,38.959,23.875z
			 M16.001,26.052l4.468,3.44l-4.468,4.467V26.052z M22.065,30.725l3.444,2.652c0.035,0.026,0.076,0.039,0.113,0.061
			c0.034,0.02,0.064,0.039,0.101,0.055c0.128,0.055,0.261,0.094,0.396,0.094h0.001h0.001c0.131,0,0.259-0.035,0.383-0.088
			c0.034-0.015,0.062-0.03,0.097-0.049c0.034-0.02,0.072-0.029,0.105-0.054l3.997-2.887l4.863,4.864H17.416L22.065,30.725z
			 M36.98,33.959l-4.636-4.637l4.636-3.348V33.959z M20.386,23.225l-1.58-1.204l7.705-6.739l9.867,8.662l-5.919,4.275
			c-0.146,0.047-0.283,0.117-0.398,0.232c-0.03,0.03-0.044,0.071-0.069,0.104l-3.851,2.78l-9.563-7.366l0.692-0.606l1.903,1.45
			c0.441,0.337,1.068,0.25,1.401-0.188C20.909,24.187,20.824,23.559,20.386,23.225z"/>
		<path d="M22.744,22.384h8.022c0.553,0,1-0.447,1-1c0-0.554-0.447-1-1-1h-8.022c-0.554,0-1,0.446-1,1
			C21.744,21.937,22.19,22.384,22.744,22.384z"/>
		<path d="M22.744,26.338h8.022c0.553,0,1-0.447,1-1s-0.447-1-1-1h-8.022c-0.554,0-1,0.447-1,1S22.19,26.338,22.744,26.338z"/>
	</g>
</g>
</svg>